<mxfile host="app.diagrams.net" modified="2024-03-31T05:30:16.216Z" agent="Mozilla/5.0 (Windows NT 10.0; Win64; x64) AppleWebKit/537.36 (KHTML, like Gecko) Chrome/123.0.0.0 Safari/537.36" etag="t7Cm8UqWRl8FwwdnyCE6" version="24.0.7" type="github">
  <diagram name="Page-1" id="9sZ3qviPEBcWX2Y_9dAU">
    <mxGraphModel dx="1372" dy="820" grid="1" gridSize="10" guides="1" tooltips="1" connect="1" arrows="1" fold="1" page="1" pageScale="1" pageWidth="850" pageHeight="1100" math="0" shadow="0">
      <root>
        <mxCell id="0" />
        <mxCell id="1" parent="0" />
        <mxCell id="4AhnyA9U5RBXKUi3SzgU-6" style="edgeStyle=orthogonalEdgeStyle;rounded=0;orthogonalLoop=1;jettySize=auto;html=1;entryX=0;entryY=0.25;entryDx=0;entryDy=0;" edge="1" parent="1" source="4AhnyA9U5RBXKUi3SzgU-1" target="4AhnyA9U5RBXKUi3SzgU-5">
          <mxGeometry relative="1" as="geometry" />
        </mxCell>
        <mxCell id="4AhnyA9U5RBXKUi3SzgU-1" value="Engine for&amp;nbsp;&lt;br&gt;Chrome" style="whiteSpace=wrap;html=1;aspect=fixed;" vertex="1" parent="1">
          <mxGeometry x="130" y="120" width="80" height="80" as="geometry" />
        </mxCell>
        <mxCell id="4AhnyA9U5RBXKUi3SzgU-7" style="edgeStyle=orthogonalEdgeStyle;rounded=0;orthogonalLoop=1;jettySize=auto;html=1;entryX=0;entryY=0.75;entryDx=0;entryDy=0;" edge="1" parent="1" source="4AhnyA9U5RBXKUi3SzgU-2" target="4AhnyA9U5RBXKUi3SzgU-5">
          <mxGeometry relative="1" as="geometry" />
        </mxCell>
        <mxCell id="4AhnyA9U5RBXKUi3SzgU-2" value="Engine for&amp;nbsp;&lt;br&gt;Firefox" style="whiteSpace=wrap;html=1;aspect=fixed;" vertex="1" parent="1">
          <mxGeometry x="130" y="250" width="80" height="80" as="geometry" />
        </mxCell>
        <mxCell id="4AhnyA9U5RBXKUi3SzgU-8" style="edgeStyle=orthogonalEdgeStyle;rounded=0;orthogonalLoop=1;jettySize=auto;html=1;" edge="1" parent="1" source="4AhnyA9U5RBXKUi3SzgU-3" target="4AhnyA9U5RBXKUi3SzgU-5">
          <mxGeometry relative="1" as="geometry" />
        </mxCell>
        <mxCell id="4AhnyA9U5RBXKUi3SzgU-3" value="Engine for&amp;nbsp;&lt;br&gt;Firefox" style="whiteSpace=wrap;html=1;aspect=fixed;" vertex="1" parent="1">
          <mxGeometry x="140" y="360" width="80" height="80" as="geometry" />
        </mxCell>
        <mxCell id="4AhnyA9U5RBXKUi3SzgU-5" value="ECMAScript Standard" style="rounded=0;whiteSpace=wrap;html=1;" vertex="1" parent="1">
          <mxGeometry x="390" y="180" width="260" height="100" as="geometry" />
        </mxCell>
      </root>
    </mxGraphModel>
  </diagram>
</mxfile>
